<?xml version="1.0" standalone="no"?>
<!DOCTYPE svg PUBLIC "-//W3C//DTD SVG 20010904//EN"
 "http://www.w3.org/TR/2001/REC-SVG-20010904/DTD/svg10.dtd">
<svg version="1.0" xmlns="http://www.w3.org/2000/svg"
 width="1280.000000pt" height="1280.000000pt" viewBox="0 0 1280.000000 1280.000000"
 preserveAspectRatio="xMidYMid meet">
<metadata>
Created by potrace 1.14, written by Peter Selinger 2001-2017
</metadata>
<g transform="translate(0.000000,1280.000000) scale(0.100000,-0.100000)"
fill="#000000" stroke="none">
<path d="M4725 11696 c-64 -20 -99 -42 -138 -85 -40 -45 -42 -52 -27 -132 18
-96 37 -124 154 -226 90 -78 131 -106 214 -145 136 -63 262 -99 342 -97 84 3
87 17 18 83 -65 62 -111 127 -128 181 -26 85 -133 259 -205 334 -96 100 -138
116 -230 87z"/>
<path d="M11595 11090 c-3 -5 -65 -49 -138 -97 -166 -110 -164 -109 -214 -134
-23 -11 -62 -38 -85 -58 -24 -21 -67 -46 -98 -55 -54 -18 -100 -54 -100 -80 0
-17 -28 -40 -49 -41 -17 0 -230 -215 -250 -253 -7 -12 -16 -20 -20 -17 -11 6
-55 -43 -113 -126 -80 -114 -82 -119 -66 -135 12 -12 26 -9 103 22 94 38 194
59 232 49 16 -4 25 -17 33 -45 11 -43 83 -134 113 -145 10 -4 36 3 60 15 23
12 67 25 98 27 l56 6 7 -44 c4 -24 10 -55 13 -68 4 -17 2 -22 -5 -17 -7 4 -16
-2 -21 -16 -78 -198 -152 -391 -161 -423 -19 -59 -74 -167 -145 -280 -86 -138
-126 -216 -123 -239 6 -41 28 -25 61 46 18 40 59 112 90 159 67 104 145 257
163 319 7 25 42 117 78 205 36 88 66 172 66 187 0 25 2 26 35 21 28 -4 41 -1
59 16 l23 21 11 -25 c15 -32 15 -35 0 -35 -13 0 -69 -136 -109 -265 -12 -38
-31 -92 -43 -120 -28 -66 -129 -257 -170 -320 -44 -67 -126 -225 -126 -241 0
-39 24 -11 75 89 31 61 65 121 74 132 44 51 173 301 201 388 12 34 28 85 37
112 9 28 24 64 33 80 10 17 20 43 24 58 8 35 29 30 36 -8 6 -36 21 -41 44 -16
24 27 35 76 46 216 5 66 16 158 24 205 8 47 24 164 36 260 38 318 56 395 110
495 52 93 63 136 43 164 -15 22 -38 27 -48 11z"/>
<path d="M5835 10920 c-11 -18 7 -84 42 -154 41 -82 68 -198 83 -361 6 -66 13
-127 16 -135 3 -8 10 -62 14 -120 5 -58 16 -154 24 -215 8 -60 14 -126 12
-145 -3 -39 20 -175 35 -202 14 -27 29 -22 30 10 0 15 4 36 8 47 7 17 10 14
20 -20 7 -22 23 -67 36 -100 13 -33 31 -91 40 -130 22 -90 161 -409 185 -425
7 -5 90 -184 103 -222 8 -21 27 -24 27 -4 0 20 -59 154 -122 276 -71 139 -158
338 -158 362 0 11 -18 74 -40 140 -22 67 -40 127 -40 134 0 8 -9 23 -20 34
-16 16 -18 24 -9 47 l11 28 15 -22 c17 -26 55 -30 72 -9 7 8 17 42 23 75 l12
61 35 0 c20 0 60 -12 89 -27 l54 -27 30 34 c44 53 68 93 68 116 0 11 9 29 20
39 17 15 26 16 79 7 33 -6 94 -27 137 -47 81 -37 105 -34 82 9 -38 74 -134
216 -145 216 -7 0 -29 24 -47 53 -19 28 -62 82 -95 120 -33 37 -65 77 -72 88
-6 12 -17 18 -25 15 -18 -7 -54 28 -54 52 0 25 -26 47 -75 62 -22 7 -60 31
-85 54 -25 23 -70 59 -102 79 -57 36 -155 111 -235 180 -45 37 -67 45 -78 27z"/>
<path d="M10747 10123 c-37 -61 -110 -212 -125 -258 -20 -58 -159 -324 -267
-510 -29 -49 -60 -105 -69 -123 -19 -37 -32 -152 -17 -152 25 0 131 174 131
215 0 8 46 104 101 212 164 319 207 408 228 470 11 32 27 72 35 88 20 38 20
65 2 65 -8 0 -17 -3 -19 -7z"/>
<path d="M10536 10052 c-19 -32 -39 -70 -45 -85 -6 -14 -32 -64 -58 -109 -25
-46 -66 -119 -89 -163 -23 -44 -64 -123 -92 -175 -54 -103 -71 -147 -53 -136
19 12 12 -13 -10 -35 -22 -22 -69 -127 -69 -153 0 -8 4 -18 10 -21 19 -12 45
14 62 62 10 28 29 66 43 87 14 20 25 43 25 50 0 46 70 204 155 351 19 33 35
65 35 71 0 6 23 51 51 99 48 83 74 143 86 193 10 40 -15 23 -51 -36z"/>
<path d="M6577 9972 c-3 -4 6 -34 19 -66 13 -33 24 -65 24 -72 0 -18 60 -170
118 -299 120 -270 160 -365 181 -430 27 -82 79 -175 99 -175 11 0 13 12 8 53
-7 68 -7 71 -77 212 -139 286 -203 426 -230 510 -36 107 -114 275 -128 275 -5
0 -12 -3 -14 -8z"/>
<path d="M6740 9945 c0 -30 39 -120 174 -410 52 -110 116 -288 116 -319 0 -8
11 -33 24 -57 13 -24 30 -63 37 -87 14 -47 45 -74 55 -47 9 22 -34 150 -57
171 -21 19 -26 40 -8 28 20 -12 2 41 -63 180 -228 495 -257 556 -268 556 -6 0
-10 -7 -10 -15z"/>
<path d="M10966 9918 c-2 -7 -9 -33 -16 -58 -18 -69 -92 -242 -158 -371 -32
-65 -71 -152 -87 -195 -25 -71 -66 -157 -127 -267 -16 -30 -18 -41 -9 -50 9
-9 16 -6 31 13 39 51 104 182 160 325 32 81 70 164 83 184 56 85 157 347 157
409 0 23 -28 32 -34 10z"/>
<path d="M6394 9723 c8 -65 70 -249 126 -373 22 -47 61 -148 88 -225 48 -137
121 -297 142 -310 26 -16 17 29 -23 115 -25 52 -64 151 -87 220 -23 69 -62
168 -85 220 -53 116 -122 310 -131 368 -4 28 -12 42 -22 42 -12 0 -14 -10 -8
-57z"/>
<path d="M6230 9713 c0 -15 29 -113 64 -218 35 -104 69 -210 77 -235 7 -25 57
-130 110 -235 53 -104 101 -207 108 -227 14 -44 41 -51 41 -13 0 14 -37 99
-83 188 -104 204 -127 260 -219 536 -70 213 -98 270 -98 204z"/>
<path d="M9962 9118 c-7 -7 -12 -16 -12 -20 0 -4 -31 -81 -69 -170 -82 -193
-113 -272 -139 -353 -11 -33 -27 -76 -35 -95 -40 -90 -100 -256 -122 -331 -34
-126 -91 -258 -200 -471 -31 -59 -54 -110 -53 -115 1 -4 -15 -44 -36 -88 -21
-44 -46 -101 -56 -126 -10 -25 -45 -102 -78 -170 -33 -68 -71 -151 -85 -184
-14 -33 -42 -98 -62 -145 -20 -47 -61 -150 -91 -230 -31 -80 -66 -161 -78
-180 -13 -19 -35 -71 -51 -114 -23 -68 -119 -275 -158 -341 -7 -11 -33 -62
-58 -114 l-46 -95 -68 70 c-74 75 -124 167 -164 301 -12 39 -34 99 -50 134
-16 36 -44 109 -61 164 -49 152 -143 407 -214 583 -34 86 -77 195 -95 242 -18
47 -36 93 -42 102 -5 10 -9 27 -9 38 0 11 -14 51 -31 88 -70 150 -151 363
-175 457 -45 177 -319 993 -340 1014 -16 16 -83 -4 -135 -40 l-59 -40 0 -67
c0 -75 16 -137 85 -322 25 -69 77 -208 115 -310 37 -102 96 -268 130 -370 75
-222 138 -362 188 -413 31 -32 41 -37 67 -32 l30 6 -31 -19 c-17 -11 -64 -32
-105 -47 -40 -14 -102 -39 -138 -54 -36 -16 -101 -43 -144 -61 -96 -40 -111
-53 -95 -83 6 -12 33 -92 59 -177 51 -168 119 -357 175 -486 3 -6 -51 1 -128
18 -73 15 -151 28 -173 28 -23 0 -46 5 -52 11 -5 5 -32 16 -59 23 -57 15 -218
120 -258 167 -39 46 -84 139 -103 212 -13 52 -15 99 -10 282 3 121 13 297 23
390 21 217 15 434 -14 555 -41 170 -84 237 -280 437 -71 72 -143 154 -161 181
-33 52 -84 99 -158 145 -56 36 -215 103 -287 121 -183 48 -728 66 -1001 33
-518 -62 -644 -87 -729 -145 -30 -20 -106 -53 -186 -79 -248 -82 -798 -309
-912 -376 -109 -64 -434 -300 -531 -386 -65 -57 -145 -142 -198 -209 -85 -106
-140 -169 -460 -522 -167 -185 -211 -242 -208 -272 2 -14 -7 -34 -23 -51 -29
-31 -180 -280 -228 -377 -17 -36 -47 -87 -66 -115 -46 -68 -97 -209 -209 -576
-86 -282 -97 -313 -128 -342 -60 -57 -75 -185 -87 -727 -14 -676 4 -847 131
-1253 28 -88 63 -214 79 -282 17 -68 42 -157 56 -197 37 -104 130 -304 158
-341 13 -18 51 -88 85 -157 36 -75 89 -163 132 -220 154 -203 331 -419 358
-437 16 -10 91 -74 167 -143 77 -69 162 -143 191 -165 36 -28 50 -45 47 -57
-8 -27 11 -53 68 -93 29 -21 82 -61 118 -90 123 -98 549 -335 602 -335 5 0 54
-22 111 -49 234 -113 586 -234 813 -280 171 -35 400 -52 581 -44 110 6 112 5
143 -21 27 -22 41 -26 97 -26 79 0 277 23 433 51 167 30 500 115 603 154 20 8
51 15 67 15 36 0 475 186 659 279 34 18 64 31 65 29 1 -2 10 -28 19 -59 21
-68 44 -99 103 -139 74 -52 113 -61 213 -51 93 10 175 40 237 87 51 40 160
178 178 228 82 224 114 300 178 421 41 77 95 180 119 228 55 109 204 309 300
402 39 39 98 106 130 150 32 44 79 103 105 132 62 68 109 136 144 205 16 31
67 112 113 180 90 132 191 302 238 402 16 33 29 59 29 56 0 -13 101 -294 134
-371 20 -48 40 -108 46 -135 13 -67 134 -373 194 -492 33 -64 145 -353 166
-428 10 -34 74 -184 142 -335 121 -266 157 -358 214 -542 14 -48 30 -90 35
-92 4 -3 28 -36 53 -74 74 -110 164 -164 294 -175 61 -5 79 -3 113 14 77 40
117 86 140 162 42 138 17 256 -123 571 -39 89 -90 221 -113 292 -23 72 -61
175 -85 230 -65 151 -137 343 -190 506 -27 80 -76 204 -110 275 -69 144 -169
400 -201 513 -31 111 -88 253 -108 272 -10 9 -27 43 -39 75 -96 264 -164 439
-230 594 l-36 85 2 182 1 182 79 183 c44 101 83 194 87 208 4 14 57 126 117
250 102 208 218 461 218 474 0 3 25 64 55 134 30 71 55 138 55 149 0 20 144
311 214 433 18 30 47 93 66 140 18 47 48 114 65 150 18 36 42 94 53 130 33
107 71 213 87 242 8 14 13 33 9 41 -5 14 -201 90 -429 167 -62 21 -122 43
-132 49 -16 9 -14 10 12 11 60 1 146 111 211 268 15 37 42 101 59 142 18 41
37 93 44 115 7 22 23 65 36 95 13 30 56 129 96 220 39 91 80 188 89 215 18 49
53 131 90 208 27 55 42 134 38 196 l-3 54 -64 40 c-68 41 -138 56 -159 35z
m-4657 -158 c360 -18 457 -37 637 -125 61 -30 82 -46 106 -84 17 -25 47 -62
66 -80 22 -21 36 -44 36 -59 0 -13 15 -45 34 -71 53 -72 74 -123 101 -233 40
-169 48 -282 31 -422 -9 -67 -20 -170 -26 -231 -6 -60 -18 -146 -25 -190 -22
-122 -19 -249 10 -389 30 -149 45 -192 96 -278 81 -138 198 -236 412 -347 106
-55 121 -59 155 -35 12 8 22 11 22 6 0 -17 51 -32 108 -32 63 0 174 -18 297
-48 124 -31 128 -33 154 -98 13 -33 39 -88 56 -124 18 -36 35 -84 38 -106 5
-33 99 -299 186 -529 12 -30 76 -182 146 -345 20 -47 41 -96 45 -110 5 -14 30
-83 55 -154 l46 -129 -40 -88 c-23 -48 -41 -91 -41 -96 0 -4 -17 -44 -39 -88
-62 -127 -117 -245 -156 -336 -117 -274 -143 -329 -155 -329 -12 0 -70 -123
-100 -210 -18 -53 -79 -206 -135 -340 -15 -35 -51 -107 -80 -160 -106 -193
-127 -236 -151 -305 -28 -84 -74 -197 -115 -283 -16 -34 -29 -64 -29 -67 0 -3
-32 -72 -71 -153 -39 -81 -82 -176 -95 -212 -14 -36 -29 -74 -34 -85 -5 -11
-14 -36 -20 -56 -14 -46 -16 -48 -190 -159 -80 -51 -158 -108 -174 -126 -20
-24 -71 -55 -175 -105 -80 -38 -159 -83 -176 -98 -28 -26 -298 -151 -326 -151
-7 0 -62 -15 -123 -34 -188 -58 -256 -75 -381 -91 -140 -19 -255 -55 -275 -85
-10 -15 -204 -40 -240 -31 -19 5 -125 12 -235 16 -110 3 -236 10 -280 15 -292
34 -615 44 -658 21 -21 -11 -30 -11 -41 -2 -7 6 -79 34 -157 60 -79 27 -175
61 -214 76 -50 19 -80 25 -105 21 -27 -4 -44 0 -70 18 -19 12 -75 44 -125 71
-102 54 -275 156 -365 214 -33 22 -78 42 -99 46 -22 4 -47 16 -58 27 -10 11
-85 80 -168 153 -258 228 -401 367 -488 475 -186 233 -243 315 -305 444 -35
70 -77 151 -95 180 -78 123 -151 316 -197 516 -12 52 -37 142 -55 200 -99 321
-118 404 -137 614 -10 115 -9 168 6 363 9 125 26 294 37 374 25 180 21 204
-40 236 -1 1 9 37 23 80 14 43 48 164 75 269 50 191 77 269 145 418 20 43 36
93 36 111 0 50 72 215 113 257 22 24 79 127 156 280 141 285 220 420 341 579
48 64 91 127 95 140 4 12 59 79 123 148 63 69 151 171 196 225 45 55 108 128
140 162 32 34 62 66 65 71 12 17 179 159 222 188 24 17 82 57 129 90 225 160
298 197 700 360 231 94 674 247 795 275 44 10 113 22 152 25 47 5 81 14 96 25
19 15 66 23 223 39 323 34 310 33 559 21z m1180 -695 c40 -71 62 -155 73 -286
9 -97 4 -145 -38 -374 -18 -97 -22 -154 -21 -301 2 -297 52 -528 135 -624 11
-13 -3 -3 -33 23 -136 120 -190 234 -226 478 -12 83 -14 123 -6 180 6 41 19
146 30 234 12 88 25 196 31 240 21 166 7 369 -35 520 l-14 50 35 -40 c19 -22
50 -67 69 -100z m2074 -4574 l22 -53 -33 -87 c-50 -135 -322 -577 -522 -850
-42 -57 -76 -111 -76 -120 0 -10 -16 -33 -36 -52 -34 -33 -35 -33 -25 -8 5 15
38 80 73 145 36 66 72 139 82 164 10 25 26 59 36 75 10 17 28 57 40 90 13 33
26 64 31 69 5 6 9 19 9 30 0 10 34 77 75 147 92 155 185 346 185 377 0 13 17
54 38 90 22 37 42 76 46 87 7 18 9 16 21 -15 7 -19 23 -59 34 -89z m-1956
-2227 l-28 -79 -80 -43 c-275 -149 -349 -184 -479 -227 -76 -25 -144 -45 -151
-45 -7 0 -28 -13 -47 -28 -32 -25 -58 -31 -264 -65 -224 -36 -386 -60 -629
-94 -227 -31 -571 -41 -770 -23 -210 20 -442 79 -690 174 -138 54 -54 47 104
-8 96 -33 158 -47 261 -60 74 -10 158 -21 185 -27 28 -5 88 -16 135 -25 133
-25 478 -4 780 48 63 11 142 23 175 28 112 16 261 49 336 76 41 14 120 38 177
54 56 16 130 37 165 48 34 11 82 23 107 27 87 12 459 183 646 297 49 30 90 54
92 53 1 -1 -10 -38 -25 -81z"/>
<path d="M3937 8688 c-162 -93 -277 -215 -298 -316 -16 -79 -6 -193 27 -283
33 -95 59 -139 133 -230 62 -75 66 -84 136 -309 9 -30 28 -71 43 -90 51 -70
142 -151 198 -177 53 -24 63 -25 177 -21 161 6 214 26 308 115 76 72 126 160
154 268 22 85 39 270 40 410 0 142 -10 170 -105 280 -34 39 -103 122 -154 186
-52 64 -102 119 -111 123 -9 3 -27 3 -41 0 -16 -4 -55 7 -116 32 -86 34 -102
37 -213 41 l-120 4 -58 -33z m470 -319 c42 -15 100 -76 138 -144 82 -146 66
-385 -34 -496 -30 -34 -44 -41 -86 -46 -65 -7 -121 15 -136 54 -15 39 -6 133
21 233 23 86 24 128 4 313 -9 85 21 113 93 86z"/>
<path d="M2925 7836 c-13 -10 -36 -12 -76 -9 -180 17 -442 -122 -513 -272 -37
-78 -60 -186 -60 -285 -1 -74 3 -93 27 -143 20 -40 41 -66 68 -83 21 -13 39
-29 39 -34 0 -5 30 -41 66 -80 46 -49 103 -93 183 -143 89 -55 147 -102 246
-198 72 -70 149 -136 171 -147 116 -59 285 -68 379 -20 61 32 145 117 175 177
28 56 36 143 20 212 -15 61 -60 186 -156 429 -98 249 -104 265 -104 276 0 7
-53 65 -117 131 -115 118 -120 121 -218 162 -55 22 -103 41 -106 41 -3 0 -14
-6 -24 -14z m9 -287 c39 -21 116 -103 127 -137 10 -31 8 -38 -19 -75 -32 -46
-81 -78 -155 -103 l-48 -16 -64 33 c-67 34 -132 90 -144 123 -12 30 -2 59 37
111 47 61 110 88 191 80 29 -3 63 -10 75 -16z"/>
<path d="M5405 6293 c-106 -15 -229 -83 -302 -166 -114 -130 -174 -353 -160
-597 10 -160 43 -262 124 -372 53 -72 177 -131 348 -163 145 -28 232 -31 351
-11 94 15 105 21 181 108 65 74 125 183 149 273 22 82 30 288 14 367 -28 146
-124 325 -218 410 -51 46 -184 114 -260 133 -64 15 -181 25 -227 18z m183
-128 c69 -16 190 -74 213 -101 13 -16 12 -17 -11 -11 -65 18 -179 27 -231 17
-80 -15 -225 -90 -286 -148 -64 -62 -89 -110 -115 -225 -31 -140 -18 -264 46
-470 15 -46 15 -47 -4 -37 -24 13 -61 62 -89 117 -71 142 -67 458 9 627 17 39
51 89 82 122 105 111 228 146 386 109z m143 -216 c28 -6 67 -20 85 -31 18 -11
54 -23 80 -26 l47 -7 30 -80 c81 -219 26 -507 -123 -649 -50 -48 -62 -54 -121
-65 -104 -18 -147 -15 -326 20 -32 6 -53 16 -53 24 0 7 -19 71 -41 142 -40
123 -42 133 -43 263 -1 160 15 219 76 286 100 109 243 154 389 123z"/>
<path d="M1688 6230 c-24 -4 -51 -21 -76 -47 -22 -22 -59 -54 -84 -71 -85 -59
-158 -246 -143 -372 10 -92 45 -202 81 -255 71 -108 317 -279 445 -310 85 -21
402 -33 423 -16 10 8 74 11 227 9 226 -3 235 -2 287 45 12 11 22 28 22 38 0
10 18 39 40 64 65 75 91 137 97 226 7 89 2 105 -66 224 -61 106 -168 216 -236
240 -27 10 -99 40 -158 67 -176 79 -317 111 -639 143 -87 9 -164 17 -170 19
-7 2 -30 0 -50 -4z m374 -286 c134 -34 158 -55 158 -134 0 -74 -80 -130 -205
-145 -33 -3 -77 -11 -98 -16 -52 -14 -99 3 -154 54 -57 52 -77 90 -68 131 8
40 52 91 95 110 47 20 195 20 272 0z"/>
<path d="M1578 4531 c-63 -4 -112 -11 -119 -18 -7 -7 -12 -28 -11 -48 1 -19
-3 -35 -8 -35 -5 0 -35 -25 -68 -55 -78 -72 -108 -140 -127 -282 -20 -146 -18
-213 5 -313 23 -94 42 -130 68 -130 10 0 34 -16 53 -36 82 -86 210 -194 230
-194 12 0 45 -11 73 -24 28 -13 86 -32 128 -42 94 -21 153 -13 274 37 70 29
91 44 182 135 56 56 102 108 102 116 0 22 84 85 160 119 253 116 301 153 320
244 17 84 7 174 -29 251 -24 52 -41 71 -95 111 -36 26 -107 65 -158 87 -94 39
-163 49 -423 60 -38 2 -99 8 -135 14 -67 12 -232 13 -422 3z m692 -143 c58 1
128 -2 155 -8 80 -17 206 -84 232 -122 28 -42 48 -135 39 -183 -9 -45 -68
-106 -156 -160 -208 -129 -273 -179 -317 -246 -14 -21 -30 -39 -36 -39 -6 0
-84 -34 -173 -75 -90 -42 -177 -78 -193 -81 -38 -8 -119 29 -186 85 -27 22
-57 41 -67 41 -9 0 -43 23 -75 51 -32 28 -70 57 -84 64 -25 14 -43 58 -64 163
-8 41 11 228 31 300 18 64 75 131 149 173 49 28 52 29 215 30 91 0 203 5 250
9 47 4 105 5 130 1 25 -3 92 -5 150 -3z"/>
<path d="M3045 3186 c-63 -17 -102 -33 -250 -106 -85 -42 -148 -64 -216 -79
-105 -22 -290 -90 -342 -125 -82 -55 -143 -244 -141 -438 2 -128 15 -189 61
-286 69 -147 263 -309 419 -350 127 -33 156 -35 226 -16 135 36 184 67 314
199 189 189 271 312 349 516 41 107 65 209 65 277 0 102 -49 240 -92 263 -12
6 -43 31 -68 55 -89 84 -217 119 -325 90z m-174 -673 c67 -61 94 -117 93 -194
0 -82 -32 -141 -107 -201 -83 -66 -128 -82 -213 -75 -95 7 -152 34 -223 104
-62 63 -87 122 -75 183 10 46 62 97 109 106 22 4 99 31 170 60 160 65 190 67
246 17z"/>
<path d="M11704 8496 c-13 -22 -14 -35 -4 -103 15 -93 7 -206 -20 -312 -36
-142 -63 -376 -55 -481 3 -52 7 -113 8 -135 2 -44 34 -93 76 -117 36 -19 138
-15 192 9 94 42 140 104 195 267 29 85 30 117 4 292 -25 170 -36 206 -94 317
-77 147 -157 242 -228 271 -49 21 -55 20 -74 -8z"/>
</g>
</svg>
