<?xml version="1.0" encoding="UTF-8" standalone="no"?>
<!DOCTYPE svg PUBLIC "-//W3C//DTD SVG 20010904//EN"
              "http://www.w3.org/TR/2001/REC-SVG-20010904/DTD/svg10.dtd">

<svg xmlns="http://www.w3.org/2000/svg"
     width="1.11111in" height="1.11111in"
     viewBox="0 15 100 70">
  <path id="menu-icon"
        fill="#000000" stroke="none"
        d="M 74.32,45.16
           C 72.59,35.71 65.52,27.67 55.59,25.19
             45.65,22.72 35.63,26.51 29.67,34.04
             13.54,32.47 1.75,34.45 0.42,39.79
             -1.23,46.43 13.81,56.07 35.38,62.86
             35.41,62.87 35.45,62.88 35.48,62.89
             36.19,63.12 39.25,64.03 39.91,64.22
             40.09,64.27 44.64,65.49 45.49,65.71
             46.35,65.92 47.20,66.13 48.05,66.32
             48.22,66.36 54.91,67.78 55.66,67.92
             55.69,67.92 55.73,67.93 55.76,67.94
             78.00,72.06 95.80,70.60 97.46,63.96
             98.79,58.62 89.31,51.34 74.32,45.16
             74.32,45.16 74.32,45.16 74.32,45.16 Z
           M 15.79,42.21
           C 16.31,40.14 20.35,39.16 26.51,39.23
             25.88,40.61 25.36,42.06 24.98,43.59
             24.44,45.76 24.21,47.93 24.24,50.06
             18.53,47.17 15.27,44.32 15.79,42.21 Z
           M 82.75,58.88
           C 82.22,61.00 78.00,61.98 71.61,61.86
             72.63,59.99 73.44,57.97 73.98,55.80
             74.36,54.27 74.59,52.74 74.68,51.23
             80.15,54.05 83.26,56.82 82.75,58.88 Z
           M 27.23,61.64
           C 30.49,67.69 36.18,72.41 43.38,74.20
             50.57,75.99 57.82,74.50 63.53,70.68
             57.76,69.93 51.55,68.76 45.13,67.16
             38.71,65.56 32.68,63.68 27.23,61.64
             27.23,61.64 27.23,61.64 27.23,61.64 Z" />
</svg>
